<svg width="20" height="20" viewBox="0 0 20 20" fill="none" xmlns="http://www.w3.org/2000/svg">
<path d="M16.6667 1.66666H3.33332C2.8913 1.66666 2.46737 1.84226 2.15481 2.15482C1.84225 2.46738 1.66666 2.8913 1.66666 3.33333V16.6667C1.66666 17.1087 1.84225 17.5326 2.15481 17.8452C2.46737 18.1577 2.8913 18.3333 3.33332 18.3333H16.6667C17.1087 18.3333 17.5326 18.1577 17.8452 17.8452C18.1577 17.5326 18.3333 17.1087 18.3333 16.6667V3.33333C18.3333 2.8913 18.1577 2.46738 17.8452 2.15482C17.5326 1.84226 17.1087 1.66666 16.6667 1.66666ZM7.49999 14.1667C7.49999 14.3877 7.41219 14.5996 7.25591 14.7559C7.09963 14.9122 6.88767 15 6.66666 15C6.44564 15 6.23368 14.9122 6.0774 14.7559C5.92112 14.5996 5.83332 14.3877 5.83332 14.1667V12.5C5.83332 12.279 5.92112 12.067 6.0774 11.9107C6.23368 11.7545 6.44564 11.6667 6.66666 11.6667C6.88767 11.6667 7.09963 11.7545 7.25591 11.9107C7.41219 12.067 7.49999 12.279 7.49999 12.5V14.1667ZM10.8333 14.1667C10.8333 14.3877 10.7455 14.5996 10.5892 14.7559C10.433 14.9122 10.221 15 9.99999 15C9.77898 15 9.56702 14.9122 9.41074 14.7559C9.25446 14.5996 9.16666 14.3877 9.16666 14.1667V9.16667C9.16666 8.94565 9.25446 8.73369 9.41074 8.57741C9.56702 8.42113 9.77898 8.33333 9.99999 8.33333C10.221 8.33333 10.433 8.42113 10.5892 8.57741C10.7455 8.73369 10.8333 8.94565 10.8333 9.16667V14.1667ZM14.1667 14.1667C14.1667 14.3877 14.0789 14.5996 13.9226 14.7559C13.7663 14.9122 13.5543 15 13.3333 15C13.1123 15 12.9004 14.9122 12.7441 14.7559C12.5878 14.5996 12.5 14.3877 12.5 14.1667V5.83333C12.5 5.61232 12.5878 5.40036 12.7441 5.24408C12.9004 5.0878 13.1123 5 13.3333 5C13.5543 5 13.7663 5.0878 13.9226 5.24408C14.0789 5.40036 14.1667 5.61232 14.1667 5.83333V14.1667Z" fill="#E36895"/>
</svg>
