<svg width="22" height="22" viewBox="0 0 22 22" fill="none" xmlns="http://www.w3.org/2000/svg">
<path d="M4.58333 2.75V15.5833V2.75ZM4.58333 15.5833C4.22074 15.5833 3.86628 15.6909 3.56479 15.8923C3.2633 16.0938 3.02832 16.3801 2.88956 16.7151C2.75079 17.0501 2.71449 17.4187 2.78523 17.7743C2.85597 18.13 3.03058 18.4566 3.28697 18.713C3.54337 18.9694 3.87004 19.144 4.22567 19.2148C4.5813 19.2855 4.94992 19.2492 5.28492 19.1104C5.61992 18.9717 5.90625 18.7367 6.1077 18.4352C6.30914 18.1337 6.41667 17.7793 6.41667 17.4167C6.41667 16.9304 6.22351 16.4641 5.8797 16.1203C5.53588 15.7765 5.06956 15.5833 4.58333 15.5833Z" stroke="black" stroke-width="1.5" stroke-linecap="round" stroke-linejoin="round"/>
<path d="M11 6.41667V19.25V6.41667ZM11 2.75C10.6374 2.75 10.283 2.85752 9.98148 3.05897C9.67999 3.26042 9.445 3.54675 9.30624 3.88175C9.16748 4.21674 9.13118 4.58537 9.20191 4.941C9.27265 5.29663 9.44726 5.6233 9.70366 5.8797C9.96006 6.13609 10.2867 6.3107 10.6424 6.38144C10.998 6.45218 11.3666 6.41587 11.7016 6.27711C12.0366 6.13835 12.3229 5.90337 12.5244 5.60188C12.7258 5.30039 12.8334 4.94593 12.8334 4.58333C12.8334 4.0971 12.6402 3.63079 12.2964 3.28697C11.9526 2.94315 11.4863 2.75 11 2.75Z" stroke="black" stroke-width="1.5" stroke-linecap="round" stroke-linejoin="round"/>
<path d="M17.4166 12.8333V19.25V12.8333ZM17.4166 9.16667V2.75V9.16667ZM17.4166 9.16667C17.054 9.16667 16.6996 9.27419 16.3981 9.47564C16.0966 9.67709 15.8616 9.96342 15.7229 10.2984C15.5841 10.6334 15.5478 11.002 15.6185 11.3577C15.6893 11.7133 15.8639 12.04 16.1203 12.2964C16.3767 12.5528 16.7034 12.7274 17.059 12.7981C17.4146 12.8688 17.7832 12.8325 18.1182 12.6938C18.4532 12.555 18.7396 12.32 18.941 12.0185C19.1425 11.7171 19.25 11.3626 19.25 11C19.25 10.5138 19.0568 10.0475 18.713 9.70364C18.3692 9.35982 17.9029 9.16667 17.4166 9.16667Z" stroke="black" stroke-width="1.5" stroke-linecap="round" stroke-linejoin="round"/>
</svg>
