<svg width="20" height="20" viewBox="0 0 20 20" fill="none" xmlns="http://www.w3.org/2000/svg">
<path d="M17.5 2.5H2.50002C2.27901 2.5 2.06705 2.5878 1.91076 2.74408C1.75448 2.90036 1.66669 3.11232 1.66669 3.33333C1.66669 3.55435 1.75448 3.76631 1.91076 3.92259C2.06705 4.07887 2.27901 4.16667 2.50002 4.16667V13.3333C2.50002 13.7754 2.67562 14.1993 2.98818 14.5118C3.30074 14.8244 3.72466 15 4.16669 15H15.8334C16.2754 15 16.6993 14.8244 17.0119 14.5118C17.3244 14.1993 17.5 13.7754 17.5 13.3333V4.16667C17.721 4.16667 17.933 4.07887 18.0893 3.92259C18.2456 3.76631 18.3334 3.55435 18.3334 3.33333C18.3334 3.11232 18.2456 2.90036 18.0893 2.74408C17.933 2.5878 17.721 2.5 17.5 2.5ZM7.50002 10.8333C7.50002 11.0543 7.41222 11.2663 7.25594 11.4226C7.09966 11.5789 6.8877 11.6667 6.66669 11.6667C6.44567 11.6667 6.23371 11.5789 6.07743 11.4226C5.92115 11.2663 5.83335 11.0543 5.83335 10.8333V8.33333C5.83335 8.11232 5.92115 7.90036 6.07743 7.74408C6.23371 7.5878 6.44567 7.5 6.66669 7.5C6.8877 7.5 7.09966 7.5878 7.25594 7.74408C7.41222 7.90036 7.50002 8.11232 7.50002 8.33333V10.8333ZM10.8334 10.8333C10.8334 11.0543 10.7456 11.2663 10.5893 11.4226C10.433 11.5789 10.221 11.6667 10 11.6667C9.77901 11.6667 9.56705 11.5789 9.41077 11.4226C9.25449 11.2663 9.16669 11.0543 9.16669 10.8333V6.66667C9.16669 6.44565 9.25449 6.23369 9.41077 6.07741C9.56705 5.92113 9.77901 5.83333 10 5.83333C10.221 5.83333 10.433 5.92113 10.5893 6.07741C10.7456 6.23369 10.8334 6.44565 10.8334 6.66667V10.8333ZM14.1667 10.8333C14.1667 11.0543 14.0789 11.2663 13.9226 11.4226C13.7663 11.5789 13.5544 11.6667 13.3334 11.6667C13.1123 11.6667 12.9004 11.5789 12.7441 11.4226C12.5878 11.2663 12.5 11.0543 12.5 10.8333V8.33333C12.5 8.11232 12.5878 7.90036 12.7441 7.74408C12.9004 7.5878 13.1123 7.5 13.3334 7.5C13.5544 7.5 13.7663 7.5878 13.9226 7.74408C14.0789 7.90036 14.1667 8.11232 14.1667 8.33333V10.8333ZM8.40002 15.8333L7.31669 17.1833C7.23908 17.2815 7.14035 17.361 7.02782 17.4158C6.91529 17.4707 6.79186 17.4994 6.66669 17.5C6.47872 17.4989 6.29664 17.4343 6.15002 17.3167C5.97831 17.1792 5.86794 16.9794 5.84296 16.7608C5.81798 16.5423 5.88043 16.3227 6.01669 16.15L6.26669 15.8333H8.40002ZM13.85 17.3167C13.7034 17.4343 13.5213 17.4989 13.3334 17.5C13.2082 17.4994 13.0848 17.4707 12.9722 17.4158C12.8597 17.361 12.761 17.2815 12.6834 17.1833L11.6 15.8333H13.7334L13.9834 16.15C14.1196 16.3227 14.1821 16.5423 14.1571 16.7608C14.1321 16.9794 14.0217 17.1792 13.85 17.3167Z" fill="#10AA0D"/>
</svg>
