<svg width="24" height="24" viewBox="0 0 24 24" fill="none" xmlns="http://www.w3.org/2000/svg">
<path d="M17 16V20C17 20.2652 16.8946 20.5196 16.7071 20.7071C16.5196 20.8946 16.2652 21 16 21H4C3.73478 21 3.48043 20.8946 3.29289 20.7071C3.10536 20.5196 3 20.2652 3 20V4C3 3.73478 3.10536 3.48043 3.29289 3.29289C3.48043 3.10536 3.73478 3 4 3H16C16.2652 3 16.5196 3.10536 16.7071 3.29289C16.8946 3.48043 17 3.73478 17 4V10M7 6C7 6.26522 7.10536 6.51957 7.29289 6.70711C7.48043 6.89464 7.73478 7 8 7H12C12.2652 7 12.5196 6.89464 12.7071 6.70711C12.8946 6.51957 13 6.26522 13 6V3H7V6ZM20.71 10.69L19.31 9.29C19.1231 9.10677 18.8718 9.00414 18.61 9.00414C18.3482 9.00414 18.0969 9.10677 17.91 9.29L13 14.2V17H15.8L20.71 12.09C20.8932 11.9031 20.9959 11.6518 20.9959 11.39C20.9959 11.1282 20.8932 10.8769 20.71 10.69Z" stroke="black" stroke-width="1.5" stroke-linecap="round" stroke-linejoin="round"/>
</svg>
