<svg width="24" height="24" viewBox="0 0 24 24" fill="none" xmlns="http://www.w3.org/2000/svg">
<path d="M19.38 14.38C19.5768 14.577 19.7329 14.8109 19.8392 15.0683C19.9456 15.3257 20.0002 15.6015 20 15.88V15.88C20 16.4423 19.7766 16.9815 19.3791 17.3791C18.9815 17.7766 18.4423 18 17.88 18H6.12C5.55774 18 5.01851 17.7766 4.62093 17.3791C4.22336 16.9815 4 16.4423 4 15.88V15.88C3.99976 15.6015 4.05438 15.3257 4.16077 15.0683C4.26715 14.8109 4.4232 14.577 4.62 14.38L6 13V9C6 7.4087 6.63214 5.88258 7.75736 4.75736C8.88258 3.63214 10.4087 3 12 3V3C13.5913 3 15.1174 3.63214 16.2426 4.75736C17.3679 5.88258 18 7.4087 18 9V13L19.38 14.38ZM15 18H9C9 18.7956 9.31607 19.5587 9.87868 20.1213C10.4413 20.6839 11.2044 21 12 21C12.7957 21 13.5587 20.6839 14.1213 20.1213C14.6839 19.5587 15 18.7956 15 18Z" stroke="black" stroke-width="2" stroke-linecap="round" stroke-linejoin="round"/>
</svg>
