<svg width="20" height="20" viewBox="0 0 20 20" fill="none" xmlns="http://www.w3.org/2000/svg">
<path d="M16.6667 17.3L15.9917 14.5917C15.8403 13.9874 15.4689 13.4614 14.95 13.1167L14.1167 12.5667L14.3667 10.9667C14.5848 9.54338 14.4646 8.08871 14.0158 6.72054C13.567 5.35236 12.8022 4.10916 11.7833 3.09166L11.175 2.5C10.8627 2.18958 10.4403 2.01534 10 2.01534C9.5597 2.01534 9.13728 2.18958 8.82501 2.5L8.23334 3.09166C7.21449 4.10916 6.44967 5.35236 6.00085 6.72054C5.55204 8.08871 5.43184 9.54338 5.65001 10.9667L5.90001 12.5667L5.06667 13.1167C4.55375 13.4657 4.18621 13.9904 4.03334 14.5917L3.33334 17.3C3.30213 17.423 3.29942 17.5515 3.32541 17.6757C3.35141 17.7999 3.40542 17.9165 3.48334 18.0167C3.56438 18.1194 3.66848 18.2016 3.78719 18.2566C3.90591 18.3116 4.03591 18.3379 4.16667 18.3333H15.8333C15.9599 18.334 16.085 18.3059 16.1991 18.251C16.3131 18.1961 16.4132 18.116 16.4917 18.0167C16.5739 17.9187 16.6325 17.803 16.6628 17.6788C16.6931 17.5545 16.6945 17.4249 16.6667 17.3ZM5.65001 15C5.69906 14.7994 5.82081 14.6242 5.99167 14.5083L6.17501 14.3917L6.52501 16.6667H5.23334L5.65001 15ZM10.8333 10.8333C10.8333 11.0543 10.7455 11.2663 10.5893 11.4226C10.433 11.5789 10.221 11.6667 10 11.6667C9.77899 11.6667 9.56703 11.5789 9.41075 11.4226C9.25447 11.2663 9.16667 11.0543 9.16667 10.8333V8.33333C9.16667 8.11232 9.25447 7.90036 9.41075 7.74408C9.56703 7.58779 9.77899 7.5 10 7.5C10.221 7.5 10.433 7.58779 10.5893 7.74408C10.7455 7.90036 10.8333 8.11232 10.8333 8.33333V10.8333ZM13.475 16.6667L13.825 14.3833L14 14.5C14.174 14.6144 14.2989 14.7898 14.35 14.9917L14.7667 16.6583L13.475 16.6667Z" fill="#D62AD0"/>
</svg>
