<svg width="20" height="20" viewBox="0 0 20 20" fill="none" xmlns="http://www.w3.org/2000/svg">
<path d="M16.6667 1.66666H3.33332C2.8913 1.66666 2.46737 1.84226 2.15481 2.15482C1.84225 2.46738 1.66666 2.8913 1.66666 3.33333V13.3333C1.66666 13.7754 1.84225 14.1993 2.15481 14.5118C2.46737 14.8244 2.8913 15 3.33332 15H6.32499L9.40832 18.0917C9.48579 18.1698 9.57796 18.2318 9.67951 18.2741C9.78106 18.3164 9.88998 18.3382 9.99999 18.3382C10.11 18.3382 10.2189 18.3164 10.3205 18.2741C10.422 18.2318 10.5142 18.1698 10.5917 18.0917L13.675 15H16.6667C17.1087 15 17.5326 14.8244 17.8452 14.5118C18.1577 14.1993 18.3333 13.7754 18.3333 13.3333V3.33333C18.3333 2.8913 18.1577 2.46738 17.8452 2.15482C17.5326 1.84226 17.1087 1.66666 16.6667 1.66666ZM13.3333 7.5H12.4417C12.3037 8.62032 11.8947 9.69012 11.25 10.6167C11.4455 10.7208 11.6524 10.8019 11.8667 10.8583C12.0637 10.9077 12.2359 11.0273 12.3509 11.1948C12.4659 11.3622 12.5159 11.5658 12.4913 11.7674C12.4667 11.9691 12.3694 12.1548 12.2175 12.2897C12.0657 12.4246 11.8698 12.4994 11.6667 12.5H11.4667C10.9468 12.3494 10.4525 12.1219 9.99999 11.825C9.54975 12.1256 9.05064 12.3455 8.52499 12.475L8.33332 12.5C8.11231 12.5265 7.88981 12.4642 7.71478 12.3266C7.53975 12.1891 7.42651 11.9877 7.39999 11.7667C7.37347 11.5457 7.43583 11.3232 7.57336 11.1481C7.71088 10.9731 7.91231 10.8599 8.13332 10.8333C8.27815 10.7962 8.42017 10.7488 8.55832 10.6917C8.1978 10.3645 7.88126 9.99197 7.61666 9.58333C7.5317 9.39534 7.51948 9.18251 7.58239 8.98604C7.64529 8.78956 7.77884 8.6234 7.95719 8.51971C8.13554 8.41602 8.34601 8.38217 8.54787 8.42471C8.74974 8.46725 8.92865 8.58315 9.04999 8.75C9.28057 9.09779 9.56139 9.40951 9.88332 9.675C10.3378 9.02746 10.6346 8.28264 10.75 7.5H6.66666C6.44564 7.5 6.23368 7.4122 6.0774 7.25592C5.92112 7.09964 5.83332 6.88768 5.83332 6.66666C5.83332 6.44565 5.92112 6.23369 6.0774 6.07741C6.23368 5.92113 6.44564 5.83333 6.66666 5.83333H9.16666C9.16666 5.61232 9.25446 5.40036 9.41074 5.24408C9.56702 5.0878 9.77898 5 9.99999 5C10.221 5 10.433 5.0878 10.5892 5.24408C10.7455 5.40036 10.8333 5.61232 10.8333 5.83333H13.3333C13.5543 5.83333 13.7663 5.92113 13.9226 6.07741C14.0789 6.23369 14.1667 6.44565 14.1667 6.66666C14.1667 6.88768 14.0789 7.09964 13.9226 7.25592C13.7663 7.4122 13.5543 7.5 13.3333 7.5Z" fill="#33C2EF"/>
</svg>
